{
  "accessors": [
    {
      "bufferView": 1,
      "componentType": 5126,
      "count": 1014,
      "max": [
        2.0562503337860107,
        0.34009402990341187,
        1.1526305675506592
      ],
      "min": [
        0.5864589214324951,
        -0.4109698534011841,
        -1.1526305675506592
      ],
      "type": "VEC3"
    },
    {
      "bufferView": 1,
      "byteOffset": 12168,
      "componentType": 5126,
      "count": 1014,
      "max": [
        0.9744046330451965,
        0.9999098777770996,
        0.9481711983680725
      ],
      "min": [
        -0.9745309948921204,
        -0.9998712539672852,
        -0.9481711983680725
      ],
      "type": "VEC3"
    },
    {
      "bufferView": 2,
      "componentType": 5126,
      "count": 1014,
      "max": [
        1.0,
        1.0,
        1.0,
        1.0
      ],
      "min": [
        1.0,
        0.13333334028720856,
        0.0,
        1.0
      ],
      "type": "VEC4"
    },
    {
      "bufferView": 0,
      "componentType": 5125,
      "count": 5616,
      "type": "SCALAR"
    },
    {
      "bufferView": 1,
      "byteOffset": 24336,
      "componentType": 5126,
      "count": 32,
      "max": [
        1.1102139949798584,
        0.7214688658714294,
        0.5851806402206421
      ],
      "min": [
        0.9747112989425659,
        0.5105716586112976,
        -0.5851806402206421
      ],
      "type": "VEC3"
    },
    {
      "bufferView": 1,
      "byteOffset": 24720,
      "componentType": 5126,
      "count": 32,
      "max": [
        0.9594939351081848,
        0.9973896741867065,
        0.8184552192687988
      ],
      "min": [
        -0.9466419816017151,
        -0.988465428352356,
        -0.8184552192687988
      ],
      "type": "VEC3"
    },
    {
      "bufferView": 2,
      "byteOffset": 16224,
      "componentType": 5126,
      "count": 32,
      "max": [
        0.0,
        0.0,
        0.0,
        1.0
      ],
      "min": [
        0.0,
        0.0,
        0.0,
        1.0
      ],
      "type": "VEC4"
    },
    {
      "bufferView": 0,
      "byteOffset": 22464,
      "componentType": 5125,
      "count": 168,
      "type": "SCALAR"
    },
    {
      "bufferView": 1,
      "byteOffset": 25104,
      "componentType": 5126,
      "count": 2266,
      "max": [
        1.165982723236084,
        1.0024471282958984,
        1.0981186628341675
      ],
      "min": [
        0.29441410303115845,
        0.22580748796463013,
        -1.0981186628341675
      ],
      "type": "VEC3"
    },
    {
      "bufferView": 1,
      "byteOffset": 52296,
      "componentType": 5126,
      "count": 2266,
      "max": [
        0.999285101890564,
        0.9976425170898438,
        0.9962435960769653
      ],
      "min": [
        -0.9982118010520935,
        -0.9994815587997437,
        -0.9962435960769653
      ],
      "type": "VEC3"
    },
    {
      "bufferView": 2,
      "byteOffset": 16736,
      "componentType": 5126,
      "count": 2266,
      "max": [
        1.0,
        1.0,
        1.0,
        1.0
      ],
      "min": [
        1.0,
        1.0,
        1.0,
        1.0
      ],
      "type": "VEC4"
    },
    {
      "bufferView": 0,
      "byteOffset": 23136,
      "componentType": 5125,
      "count": 13800,
      "type": "SCALAR"
    },
    {
      "bufferView": 1,
      "byteOffset": 79488,
      "componentType": 5126,
      "count": 1566,
      "max": [
        1.1873608827590942,
        1.198634147644043,
        1.624557375907898
      ],
      "min": [
        -1.7568711042404175,
        -1.0458102226257324,
        -1.624557375907898
      ],
      "type": "VEC3"
    },
    {
      "bufferView": 1,
      "byteOffset": 98280,
      "componentType": 5126,
      "count": 1566,
      "max": [
        0.9977455735206604,
        0.9994230270385742,
        0.9994628429412842
      ],
      "min": [
        -0.9981130957603455,
        -0.9999313354492188,
        -0.9994628429412842
      ],
      "type": "VEC3"
    },
    {
      "bufferView": 2,
      "byteOffset": 52992,
      "componentType": 5126,
      "count": 1566,
      "max": [
        1.0,
        1.0,
        1.0,
        1.0
      ],
      "min": [
        0.9764705896377563,
        1.0,
        0.0,
        1.0
      ],
      "type": "VEC4"
    },
    {
      "bufferView": 0,
      "byteOffset": 78336,
      "componentType": 5125,
      "count": 9084,
      "type": "SCALAR"
    }
  ],
  "asset": {
    "extras": {
      "author": "XtremeZero (https://sketchfab.com/mohammedzero43)",
      "license": "CC-BY-4.0 (http://creativecommons.org/licenses/by/4.0/)",
      "source": "https://sketchfab.com/3d-models/flappy-bird-3d-vertex-colors-3f2bc66f220c46c3bfdb00e912ae245e",
      "title": "Flappy bird 3D (Vertex Colors)"
    },
    "generator": "Sketchfab-12.64.0",
    "version": "2.0"
  },
  "bufferViews": [
    {
      "buffer": 0,
      "byteLength": 114672,
      "name": "floatBufferViews",
      "target": 34963
    },
    {
      "buffer": 0,
      "byteLength": 117072,
      "byteOffset": 114672,
      "byteStride": 12,
      "name": "floatBufferViews",
      "target": 34962
    },
    {
      "buffer": 0,
      "byteLength": 78048,
      "byteOffset": 231744,
      "byteStride": 16,
      "name": "floatBufferViews",
      "target": 34962
    }
  ],
  "buffers": [
    {
      "byteLength": 309792,
      "uri": "scene.bin"
    }
  ],
  "materials": [
    {
      "emissiveFactor": [
        0.19802327142925605,
        0.048228949695479695,
        0.0
      ],
      "name": "Material.004",
      "pbrMetallicRoughness": {
        "metallicFactor": 0.0,
        "roughnessFactor": 0.6
      }
    },
    {
      "doubleSided": true,
      "name": "Material.003",
      "pbrMetallicRoughness": {
        "metallicFactor": 0.0,
        "roughnessFactor": 0.6
      }
    },
    {
      "doubleSided": true,
      "name": "Material.002",
      "pbrMetallicRoughness": {
        "metallicFactor": 0.0,
        "roughnessFactor": 0.6
      }
    },
    {
      "doubleSided": true,
      "name": "Material.001",
      "pbrMetallicRoughness": {
        "baseColorFactor": [
          0.9602083826516892,
          0.6182357184157068,
          0.0,
          1.0
        ],
        "metallicFactor": 0.0,
        "roughnessFactor": 0.6
      }
    }
  ],
  "meshes": [
    {
      "name": "Object_0",
      "primitives": [
        {
          "attributes": {
            "COLOR_0": 2,
            "NORMAL": 1,
            "POSITION": 0
          },
          "indices": 3,
          "material": 0,
          "mode": 4
        }
      ]
    },
    {
      "name": "Object_1",
      "primitives": [
        {
          "attributes": {
            "COLOR_0": 6,
            "NORMAL": 5,
            "POSITION": 4
          },
          "indices": 7,
          "material": 1,
          "mode": 4
        }
      ]
    },
    {
      "name": "Object_2",
      "primitives": [
        {
          "attributes": {
            "COLOR_0": 10,
            "NORMAL": 9,
            "POSITION": 8
          },
          "indices": 11,
          "material": 2,
          "mode": 4
        }
      ]
    },
    {
      "name": "Object_3",
      "primitives": [
        {
          "attributes": {
            "COLOR_0": 14,
            "NORMAL": 13,
            "POSITION": 12
          },
          "indices": 15,
          "material": 3,
          "mode": 4
        }
      ]
    }
  ],
  "nodes": [
    {
      "children": [
        1
      ],
      "matrix": [
        1.0,
        0.0,
        0.0,
        0.0,
        0.0,
        2.220446049250313e-16,
        -1.0,
        0.0,
        0.0,
        1.0,
        2.220446049250313e-16,
        0.0,
        0.0,
        0.0,
        0.0,
        1.0
      ],
      "name": "Sketchfab_model"
    },
    {
      "children": [
        2
      ],
      "name": "root"
    },
    {
      "children": [
        3
      ],
      "matrix": [
        1.0,
        0.0,
        0.0,
        0.0,
        0.0,
        2.220446049250313e-16,
        1.0,
        0.0,
        0.0,
        -1.0,
        2.220446049250313e-16,
        0.0,
        0.0,
        0.0,
        0.0,
        1.0
      ],
      "name": "GLTF_SceneRootNode"
    },
    {
      "children": [
        4,
        5,
        6,
        7
      ],
      "name": "Circle.001_0"
    },
    {
      "mesh": 0,
      "name": "Object_4"
    },
    {
      "mesh": 1,
      "name": "Object_5"
    },
    {
      "mesh": 2,
      "name": "Object_6"
    },
    {
      "mesh": 3,
      "name": "Object_7"
    }
  ],
  "scene": 0,
  "scenes": [
    {
      "name": "Sketchfab_Scene",
      "nodes": [
        0
      ]
    }
  ]
}
